Coordinates
version=1
nRows=38
nColumns=12
inDegrees=yes

Units are S.I. units (second, meters, Newtons, ...)
Angles are in degrees

endheader
time	SC_y	SC_z	SC_x	AC_y	AC_z	AC_x	GH_y	GH_z	GH_yy	EL_x	PS_y
       0.0              -39.16          34.21          66.66          33.73         -19.21          18.18          111.9         -6.116          2.512          98.64          7.676
  0.003944              -39.16          34.21          66.65          33.73         -19.21          18.18          111.9          -6.11           2.49          98.64          7.695
  0.007889              -39.16           34.2          66.64          33.73         -19.21          18.17          111.9         -6.103          2.466          98.64          7.716
   0.01183              -39.16           34.2          66.63          33.73         -19.21          18.17          111.8         -6.096          2.441          98.63          7.738
   0.01578              -39.16           34.2          66.62          33.73          -19.2          18.16          111.8         -6.089          2.414          98.63          7.762
   0.01972              -39.16           34.2          66.61          33.73          -19.2          18.16          111.7          -6.08          2.385          98.63          7.787
   0.02367              -39.15          34.19           66.6          33.73          -19.2          18.15          111.7         -6.072          2.354          98.62          7.814
   0.02761              -39.15          34.19          66.59          33.73          -19.2          18.15          111.6         -6.062          2.321          98.62          7.843
   0.03155              -39.15          34.18          66.57          33.73          -19.2          18.14          111.5         -6.052          2.286          98.61          7.874
    0.0355              -39.15          34.18          66.56          33.73          -19.2          18.13          111.5         -6.042          2.248          98.61          7.907
   0.03944              -39.14          34.18          66.54          33.73          -19.2          18.13          111.4          -6.03          2.208           98.6          7.942
   0.04339              -39.14          34.17          66.52          33.73          -19.2          18.12          111.3         -6.018          2.164           98.6          7.981
   0.04733              -39.14          34.17           66.5          33.73          -19.2          18.11          111.2         -6.005          2.117          98.59          8.022
   0.05128              -39.14          34.16          66.48          33.73          -19.2           18.1          111.2          -5.99          2.066          98.58          8.066
   0.05522              -39.13          34.15          66.46          33.73         -19.19          18.09          111.1         -5.975          2.011          98.58          8.115
   0.05916              -39.13          34.15          66.44          33.73         -19.19          18.08          111.0         -5.958          1.952          98.57          8.167
   0.06311              -39.12          34.14          66.41          33.73         -19.19          18.07          110.8          -5.94          1.887          98.56          8.224
   0.06705              -39.12          34.13          66.39          33.73         -19.19          18.06          110.7          -5.92          1.816          98.55          8.285
     0.071              -39.11          34.12          66.36          33.73         -19.19          18.04          110.6         -5.898          1.739          98.54          8.353
   0.07494              -39.11          34.11          66.32          33.73         -19.19          18.03          110.4         -5.874          1.655          98.53          8.427
   0.07889               -39.1           34.1          66.29          33.73         -19.18          18.01          110.3         -5.848          1.562          98.52          8.508
   0.08283               -39.1          34.09          66.25          33.73         -19.18           18.0          110.1         -5.819           1.46           98.5          8.597
   0.08677              -39.09          34.08           66.2          33.73         -19.18          17.98          109.9         -5.787          1.347          98.49          8.696
   0.09072              -39.08          34.07          66.15          33.72         -19.18          17.95          109.7         -5.752          1.222          98.47          8.806
   0.09466              -39.07          34.05           66.1          33.72         -19.17          17.93          109.4         -5.713          1.084          98.45          8.927
   0.09861              -39.06          34.03          66.04          33.72         -19.17           17.9          109.1         -5.669         0.9287          98.43          9.063
    0.1026              -39.05          34.02          65.97          33.72         -19.16          17.87          108.8          -5.62         0.7552          98.41          9.215
    0.1065              -39.04          33.99          65.89          33.72         -19.16          17.84          108.5         -5.565         0.5601          98.38          9.386
    0.1104              -39.03          33.97          65.81          33.72         -19.15           17.8          108.1         -5.503         0.3395          98.36          9.579
    0.1144              -39.01          33.94          65.71          33.72         -19.15          17.75          107.6         -5.432        0.08909          98.32          9.798
    0.1183              -38.99          33.91          65.59          33.72         -19.14           17.7          107.1         -5.352        -0.1967          98.28          10.05
    0.1223              -38.97          33.87          65.47          33.72         -19.13          17.64          106.6         -5.259        -0.5247          98.24          10.34
    0.1262              -38.95          33.83          65.32          33.71         -19.12          17.58          105.9         -5.152        -0.9034          98.19          10.67
    0.1302              -38.92          33.78          65.14          33.71         -19.11           17.5          105.1         -5.028         -1.343          98.13          11.05
    0.1341              -38.89          33.73          64.94          33.71          -19.1          17.41          104.2         -4.883         -1.858          98.07           11.5
     0.138              -38.85          33.66           64.7           33.7         -19.09           17.3          103.1         -4.711         -2.465          97.99          12.04
     0.142               -38.8          33.58          64.42           33.7         -19.07          17.17          101.8         -4.508         -3.186          97.89          12.67
    0.1459              -38.75          33.48          64.08           33.7         -19.05          17.02          100.3         -4.264         -4.051          97.78          13.42
